<?xml version="1.0" encoding="utf-8"?>
<!-- Generator: Adobe Illustrator 24.0.0, SVG Export Plug-In . SVG Version: 6.00 Build 0)  -->
<svg version="1.1" id="Layer_1" xmlns="http://www.w3.org/2000/svg" xmlns:xlink="http://www.w3.org/1999/xlink" x="0px" y="0px"
	 viewBox="0 0 1875.9 391.7" style="enable-background:new 0 0 1875.9 391.7;" xml:space="preserve">
<style type="text/css">
	.st0{fill:#6AA902;}
	.st1{fill:#92A08F;}
	.st2{fill:#7A5166;}
	.st3{fill:#A87F86;}
	.st4{fill:#383838;}
</style>
<g>
	<path class="st0" d="M76.3,244.6c0,0-48.4-57.3,5.9-106.9l2.7,5.8c0,0,4.5-13.9,15.1-23.8l0.7,6.9c0,0,12.2-16.1,23.5-20.7
		l-2.2,8.3l29.2-20.1l-2.2,8.3l26.6-13.2l-1,3.9l29.9-8.1l-5.9,22.4l6.9-2.4c0,0-1.1,20.3-3.9,27.6l5.1-2c0,0-6.8,20.9-10.1,27.2
		l10-6.2c0,0-8.9,27.5-14.3,33.6l9.1-4.3c0,0-5.6,19.6-16,27.3c0,0-16.6,57.1-95,45.3c0,0-14.7,29.7-14.6,40.6c0,0-6.8,2-6.6-3.8
		c0.3-5.8,51.4-134.4,102.3-169.8C171.6,120.4,139.1,130.4,76.3,244.6z"/>
	<path class="st0" d="M278.7,105.7c0,0,69.2-29,100.3,37.6l-6.3,0.8c0,0,12,8.5,18.2,21.5l-6.8-1.4c0,0,11.7,16.5,12.7,28.6
		l-7.2-4.6l10.4,33.9l-7.2-4.6l4.6,29.3l-3.4-2.2l-1.2,30.9L373,263.4l0.2,7.3c0,0-19-7.2-25.1-12l0.4,5.5c0,0-17.9-12.7-22.9-17.8
		l2.9,11.4c0,0-23.6-16.8-27.8-23.7l1.4,10c0,0-17-11.2-21.3-23.5c0,0-49.5-32.9-14.8-104.2c0,0-23.9-22.9-34.4-26.1
		c0,0,0.1-7.1,5.6-5.1s112.9,89.3,131.4,148.5C368.6,233.8,368.8,199.8,278.7,105.7z"/>
	<path class="st0" d="M304.8,333.3c0,0-26.1,70.3-96,47.5l3.7-5.2c0,0-14.4,2.9-28.1-1.5l5.7-4c0,0-20.1-2.7-29.6-10.3l8.3-2.2
		l-31.8-15.6l8.3-2.2l-24.6-16.7l3.9-1l-21.8-22l22.4-5.9l-5.5-4.9c0,0,18.2-9,25.9-10.2l-4.3-3.5c0,0,21.5-4.4,28.6-4.6l-10.3-5.7
		c0,0,28.3-5.8,36.3-4.1l-8.3-5.8c0,0,19.8-4.8,31.7,0.5c0,0,57.9-13.6,86.2,60.5c0,0,33-1.8,42.5-7.3c0,0,5.1,5-0.1,7.6
		c-5.2,2.6-142.3,21.4-198.2-5.5C149.8,311.4,174.5,334.8,304.8,333.3z"/>
	<path class="st1" d="M177.3,372.5c-20.6-1.4-30.6-13.1-30.6-13.1H67.6c-13.5,0-25.6-7.1-32.2-18.9c-6.6-11.8-6.3-25.8,0.8-37.3
		l31.9-51.6c-5.3-7.6-10.3-20.4-13.2-28.2l-40.8,66.1C2,309.2,1.5,333,12.7,353.2s31.8,32.2,54.9,32.2h123.7
		c-11.5-4.1-20.2-8.9-20.2-8.9L177.3,372.5z"/>
	<path class="st2" d="M156.4,85l19.2-7.2l17.3-28c6.8-10.9,18.5-17.5,31.3-17.5c12.9,0,24.6,6.5,31.3,17.5l27.1,43.9
		c9.1-2.1,20-2.4,29.2-2.2l-34.2-55.4c-11.5-18.7-31.5-29.8-53.5-29.8s-41.9,11.1-53.5,29.8L141,84.4l17.6-6.2L156.4,85z"/>
	<path class="st3" d="M434.5,289.6l-32.6-52.8c0.6,11.3-0.1,19.7-0.1,19.7l-1.9-2.8l-2,26.2l0,0l14.5,23.4
		c7.1,11.5,7.4,25.5,0.8,37.3c-6.6,11.8-18.6,18.9-32.2,18.9h-82.8c-8.3,13.6-17.9,21.5-27.8,26H381c23.1,0,43.6-12,54.9-32.2
		C447.1,333,446.6,309.2,434.5,289.6z"/>
</g>
<g>
	<path class="st4" d="M516.9,163.9l-47.7,111.3c-0.1,0.3,0.1,0.6,0.4,0.6h21.7c0.2,0,0.3-0.1,0.4-0.3l8.6-20.6
		c0.1-0.1,0.2-0.3,0.4-0.3h50.2c0.2,0,0.3,0.1,0.4,0.3l8.6,20.6c0.1,0.1,0.2,0.3,0.4,0.3h21.7c0.3,0,0.5-0.3,0.4-0.6l-47.7-111.3
		c-0.1-0.1-0.2-0.3-0.4-0.3h-16.9C517.2,163.6,517,163.8,516.9,163.9z M509,234.4l16.5-39.2c0.1-0.3,0.6-0.3,0.8,0l16.4,39.2
		c0.1,0.3-0.1,0.6-0.4,0.6h-32.9C509,234.9,508.8,234.6,509,234.4z"/>
	<path class="st4" d="M640.8,209.2l-27.9-45.4c-0.1-0.1-0.2-0.2-0.3-0.2h-23.8c-0.3,0-0.5,0.4-0.3,0.6l42.1,65.6
		c0,0.1,0.1,0.1,0.1,0.2v45.3c0,0.2,0.2,0.4,0.4,0.4h20.6c0.2,0,0.4-0.2,0.4-0.4v-45.9c0-0.1,0-0.2,0.1-0.2l42.6-64.9
		c0.2-0.3,0-0.6-0.3-0.6h-23.7c-0.1,0-0.3,0.1-0.3,0.2l-28.8,45.4C641.4,209.5,641,209.5,640.8,209.2z"/>
	<path class="st4" d="M796.8,230.8c0,7.9-2.6,14.4-7.8,19.7c-5.3,5.3-11.8,7.9-19.7,7.9c-7.8,0-14.3-2.6-19.5-7.9
		c-5.3-5.3-7.8-11.9-7.8-19.7v-66.7c0-0.2-0.2-0.4-0.4-0.4h-20.6c-0.2,0-0.4,0.2-0.4,0.4v66.7c0,13.4,4.6,24.7,13.9,33.8
		c9.5,9.1,21,13.6,34.9,13.6c13.9,0,25.6-4.5,34.9-13.6c9.5-9.1,14.1-20.3,14.1-33.8v-66.7c0-0.2-0.2-0.4-0.4-0.4h-20.6
		c-0.2,0-0.4,0.2-0.4,0.4L796.8,230.8L796.8,230.8z"/>
	<path class="st4" d="M942.1,199.9c0-10.3-3.7-18.9-11.2-25.8c-7.4-6.9-16.5-10.4-27.5-10.4h-51.5c-0.2,0-0.4,0.2-0.4,0.4v111.3
		c0,0.2,0.2,0.4,0.4,0.4h20.6c0.2,0,0.4-0.2,0.4-0.4v-38.7c0-0.2,0.2-0.4,0.4-0.4h25.5c0.2,0,0.3,0.1,0.4,0.2l23.3,39.2
		c0.1,0.1,0.2,0.2,0.4,0.2h22.9c0.3,0,0.5-0.4,0.4-0.6l-25-42.2c-0.1-0.2,0-0.5,0.2-0.6C934,226.5,942.1,214.3,942.1,199.9z
		 M902.4,216.4h-29c-0.2,0-0.4-0.2-0.4-0.4v-32c0-0.2,0.2-0.4,0.4-0.4h30c7.9,0,14.1,4.9,15.8,12
		C921.8,206.2,913.3,216.4,902.4,216.4z"/>
</g>
<path class="st2" d="M996.7,163.6H976c-0.2,0-0.4,0.2-0.4,0.4v111.3c0,0.2,0.2,0.4,0.4,0.4h77.2c0.2,0,0.4-0.2,0.4-0.4v-19
	c0-0.2-0.2-0.4-0.4-0.4h-55.7c-0.2,0-0.4-0.2-0.4-0.4v-91.4C997.1,163.8,996.9,163.6,996.7,163.6z"/>
<path class="st2" d="M1083.2,275.8h20.6c0.2,0,0.4-0.2,0.4-0.4V164.1c0-0.2-0.2-0.4-0.4-0.4h-20.6c-0.2,0-0.4,0.2-0.4,0.4v111.3
	C1082.8,275.6,1082.9,275.8,1083.2,275.8z"/>
<path class="st2" d="M1139.2,275.8h20.6c0.2,0,0.4-0.2,0.4-0.4v-45.9c0-0.2,0.2-0.4,0.4-0.4h51.6c0.2,0,0.4-0.2,0.4-0.4v-19
	c0-0.2-0.2-0.4-0.4-0.4h-51.6c-0.2,0-0.4-0.2-0.4-0.4v-24.8c0-0.2,0.2-0.4,0.4-0.4h60.4c0.2,0,0.4-0.2,0.4-0.4v-19
	c0-0.2-0.2-0.4-0.4-0.4h-81.8c-0.2,0-0.4,0.2-0.4,0.4v111.3C1138.8,275.6,1139,275.8,1139.2,275.8z"/>
<path class="st2" d="M1273.3,229h51.6c0.2,0,0.4-0.2,0.4-0.4v-19c0-0.2-0.2-0.4-0.4-0.4h-51.6c-0.2,0-0.4-0.2-0.4-0.4v-24.8
	c0-0.2,0.2-0.4,0.4-0.4h60.4c0.2,0,0.4-0.2,0.4-0.4v-19c0-0.2-0.2-0.4-0.4-0.4h-81.8c-0.2,0-0.4,0.2-0.4,0.4v111.3
	c0,0.2,0.2,0.4,0.4,0.4h82.6c0.2,0,0.4-0.2,0.4-0.4v-19c0-0.2-0.2-0.4-0.4-0.4h-61.2c-0.2,0-0.4-0.2-0.4-0.4v-26.1
	C1272.9,229.2,1273.1,229,1273.3,229z"/>
<g>
	<path class="st4" d="M1366,275.8h20.6c0.2,0,0.4-0.2,0.4-0.4v-45.9c0-0.2,0.2-0.4,0.4-0.4h51.6c0.2,0,0.4-0.2,0.4-0.4v-19
		c0-0.2-0.2-0.4-0.4-0.4h-51.6c-0.2,0-0.4-0.2-0.4-0.4v-24.8c0-0.2,0.2-0.4,0.4-0.4h60.4c0.2,0,0.4-0.2,0.4-0.4v-19
		c0-0.2-0.2-0.4-0.4-0.4H1366c-0.2,0-0.4,0.2-0.4,0.4v111.3C1365.6,275.6,1365.8,275.8,1366,275.8z"/>
	<path class="st4" d="M1499.3,163.6h-20.6c-0.2,0-0.4,0.2-0.4,0.4v111.3c0,0.2,0.2,0.4,0.4,0.4h77.2c0.2,0,0.4-0.2,0.4-0.4v-19
		c0-0.2-0.2-0.4-0.4-0.4h-55.7c-0.2,0-0.4-0.2-0.4-0.4v-91.4C1499.7,163.8,1499.5,163.6,1499.3,163.6z"/>
	<path class="st4" d="M1636.1,161.3c-16.7,0-30.6,5.6-41.8,16.8c-11.1,11.1-16.7,25-16.7,41.6s5.6,30.6,16.7,41.8
		c11.2,11,25.2,16.7,41.8,16.7c16.8,0,30.8-5.6,41.8-16.7c11.2-11.2,16.8-25.1,16.8-41.8c0-16.7-5.6-30.6-16.8-41.7
		C1666.9,166.9,1653,161.3,1636.1,161.3z M1661.9,246.6c-6.9,7.2-15.4,10.7-25.8,10.7c-10.3,0-18.9-3.5-25.8-10.7
		c-6.9-7.2-10.3-16.2-10.3-26.9s3.4-19.7,10.3-26.9s15.5-10.9,25.8-10.9c10.4,0,18.9,3.7,25.8,10.9s10.4,16.2,10.4,26.9
		C1672.3,230.4,1668.8,239.4,1661.9,246.6z"/>
	<path class="st4" d="M1849.4,163.9l-23.9,76.1c-0.1,0.4-0.7,0.4-0.8,0l-23.4-76.1c-0.1-0.2-0.2-0.3-0.4-0.3h-17
		c-0.2,0-0.3,0.1-0.4,0.3l-23.2,76.1c-0.1,0.4-0.7,0.4-0.8,0l-24-76.1c-0.1-0.2-0.2-0.3-0.4-0.3h-21.2c-0.3,0-0.5,0.3-0.4,0.6
		l37.7,111.3c0.1,0.2,0.2,0.3,0.4,0.3h17c0.2,0,0.3-0.1,0.4-0.3l23.1-73.4c0.1-0.4,0.7-0.4,0.8,0l23.1,73.4c0.1,0.2,0.2,0.3,0.4,0.3
		h16.9c0.2,0,0.3-0.1,0.4-0.3l37.7-111.3c0.1-0.3-0.1-0.6-0.4-0.6h-21.1C1849.6,163.6,1849.4,163.8,1849.4,163.9z"/>
</g>
</svg>
